<?xml version="1.0" encoding="UTF-8" standalone="no"?>
<!-- eFacturaPTY — isotipo recortado del logo completo (solo el cubo, encuadre cuadrado). -->
<svg
   xmlns="http://www.w3.org/2000/svg"
   width="1600"
   height="1600"
   viewBox="-151.316 -57.37 1600 1600"
   version="1.1"
   style="clip-rule:evenodd;fill-rule:evenodd;image-rendering:optimizeQuality;shape-rendering:geometricPrecision;text-rendering:geometricPrecision">
 <defs>
  <style type="text/css"><![CDATA[
    .fil4 {fill:#1FB6E9}
    .fil5 {fill:#E11425}
    .fil6 {fill:#142850}
  ]]></style>
 </defs>
 <g transform="translate(-576.16295,-699.261)">
  <g transform="translate(-110.50205)">
   <path
     class="fil4"
     d="m 1509.965,1302.61 v -86.193 h 172.387 c 0,57.463 0,114.925 0,172.388 h -86.195 v -86.195 z" />
   <polygon class="fil4" points="1682.352,1474.999 1768.545,1474.999 1768.545,1388.806 1682.352,1388.806 " />
   <polygon class="fil4" points="1854.74,957.839 1768.546,957.839 1768.546,1044.032 1854.74,1044.032 " />
   <polygon class="fil4" points="1768.545,871.645 1682.352,871.645 1682.352,957.838 1768.545,957.838 " />
   <polygon class="fil4" points="1854.74,1216.417 1768.546,1216.417 1768.546,1302.61 1854.74,1302.61 " />
   <polygon class="fil4" points="1897.841,742.351 1768.548,742.351 1768.548,871.643 1897.841,871.643 " />
   <polygon class="fil4" points="1984.033,1044.034 1854.741,1044.034 1854.741,1173.326 1984.033,1173.326 " />
   <path
     class="fil5"
     d="m 1087.727,1541.219 c -241.971,69.7 -401.062,187.754 -401.062,321.649 0,133.895 159.091,251.949 401.062,321.656 z" />
   <path
     class="fil6"
     d="M 1087.727,1408.78 C 845.756,1339.08 686.665,1221.025 686.665,1087.13 v 775.738 c 0,-133.895 159.091,-251.949 401.062,-321.649 z" />
   <path
     class="fil4"
     d="m 1596.159,699.261 c -502.298,0 -909.494,173.659 -909.494,387.868 0,133.896 159.092,251.951 401.061,321.65 v 132.441 c 145.141,-41.805 320.104,-66.221 508.433,-66.221 v -172.384 h -86.193 v 86.189 10e-4 h 86.192 86.193 v -172.388 h -86.193 v -86.193 h 86.193 V 957.838 h -129.29 v -129.29 h 129.29 V 699.261 Z m -129.292,603.354 v -43.097 h -43.098 v 43.097 z M 1337.581,957.842 v -43.098 h 86.191 v -86.193 h -86.192 v 86.193 h -43.097 v 43.098 z m 129.287,-0.004 v 86.193 h 86.193 v -86.193 z" />
   <polygon class="fil4" points="1940.933,1302.61 1854.74,1302.61 1854.74,1388.804 1940.933,1388.804 " />
  </g>
 </g>
</svg>
